<mxfile host="app.diagrams.net" modified="2023-05-12T07:51:57.555Z" agent="Mozilla/5.0 (Windows NT 10.0; Win64; x64) AppleWebKit/537.36 (KHTML, like Gecko) Chrome/113.0.0.0 Safari/537.36" version="21.2.9" etag="xb7vuRSsCqtCCX5RnL_q" type="github">
  <diagram name="第 1 页" id="KVUoNuQLMacxfpE-K6gJ">
    <mxGraphModel>
      <root>
        <mxCell id="0" />
        <mxCell id="1" parent="0" />
      </root>
    </mxGraphModel>
  </diagram>
</mxfile>
